<mxfile host="app.diagrams.net" modified="2023-04-06T08:26:41.814Z" agent="Mozilla/5.0 (Windows NT 10.0; Win64; x64) AppleWebKit/537.36 (KHTML, like Gecko) Chrome/111.0.0.0 Safari/537.36" etag="Rr1tpzXtkQM1TTC5yLBO" version="21.1.2" type="github">
  <diagram name="第 1 页" id="Qb4k8GEXQSuuynJWTsJw">
    <mxGraphModel dx="1434" dy="788" grid="1" gridSize="10" guides="1" tooltips="1" connect="1" arrows="1" fold="1" page="1" pageScale="1" pageWidth="827" pageHeight="1169" math="0" shadow="0">
      <root>
        <mxCell id="0" />
        <mxCell id="1" parent="0" />
        <mxCell id="FvcmgDNgN76bUKk6OBXz-51" value="" style="ellipse;whiteSpace=wrap;html=1;dashed=1;dashPattern=8 8;" parent="1" vertex="1">
          <mxGeometry x="120" y="250" width="670" height="300" as="geometry" />
        </mxCell>
        <mxCell id="FvcmgDNgN76bUKk6OBXz-65" style="edgeStyle=orthogonalEdgeStyle;rounded=0;orthogonalLoop=1;jettySize=auto;html=1;exitX=1;exitY=0.5;exitDx=0;exitDy=0;" parent="1" source="FvcmgDNgN76bUKk6OBXz-52" target="FvcmgDNgN76bUKk6OBXz-63" edge="1">
          <mxGeometry relative="1" as="geometry" />
        </mxCell>
        <mxCell id="FvcmgDNgN76bUKk6OBXz-52" value="" style="ellipse;whiteSpace=wrap;html=1;dashed=1;dashPattern=8 8;fillColor=#f5f5f5;fontColor=#333333;strokeColor=#666666;" parent="1" vertex="1">
          <mxGeometry x="120" y="290" width="490" height="220" as="geometry" />
        </mxCell>
        <mxCell id="FvcmgDNgN76bUKk6OBXz-58" style="rounded=0;orthogonalLoop=1;jettySize=auto;html=1;exitX=1;exitY=1;exitDx=0;exitDy=0;entryX=0.04;entryY=0.314;entryDx=0;entryDy=0;entryPerimeter=0;startArrow=classic;startFill=1;" parent="1" source="FvcmgDNgN76bUKk6OBXz-53" target="FvcmgDNgN76bUKk6OBXz-57" edge="1">
          <mxGeometry relative="1" as="geometry" />
        </mxCell>
        <mxCell id="FvcmgDNgN76bUKk6OBXz-53" value="Subject" style="ellipse;whiteSpace=wrap;html=1;fillColor=#fff2cc;strokeColor=#d6b656;" parent="1" vertex="1">
          <mxGeometry x="160" y="330" width="101" height="70" as="geometry" />
        </mxCell>
        <mxCell id="FvcmgDNgN76bUKk6OBXz-59" style="edgeStyle=orthogonalEdgeStyle;rounded=0;orthogonalLoop=1;jettySize=auto;html=1;exitX=0.5;exitY=1;exitDx=0;exitDy=0;entryX=0.5;entryY=0;entryDx=0;entryDy=0;startArrow=classic;startFill=1;" parent="1" source="FvcmgDNgN76bUKk6OBXz-55" target="FvcmgDNgN76bUKk6OBXz-57" edge="1">
          <mxGeometry relative="1" as="geometry" />
        </mxCell>
        <mxCell id="FvcmgDNgN76bUKk6OBXz-55" value="Resource" style="ellipse;whiteSpace=wrap;html=1;fillColor=#fff2cc;strokeColor=#d6b656;" parent="1" vertex="1">
          <mxGeometry x="290" y="330" width="101" height="70" as="geometry" />
        </mxCell>
        <mxCell id="FvcmgDNgN76bUKk6OBXz-61" style="rounded=0;orthogonalLoop=1;jettySize=auto;html=1;exitX=0;exitY=1;exitDx=0;exitDy=0;entryX=0.97;entryY=0.314;entryDx=0;entryDy=0;entryPerimeter=0;startArrow=classic;startFill=1;" parent="1" source="FvcmgDNgN76bUKk6OBXz-56" target="FvcmgDNgN76bUKk6OBXz-57" edge="1">
          <mxGeometry relative="1" as="geometry" />
        </mxCell>
        <mxCell id="FvcmgDNgN76bUKk6OBXz-56" value="Group" style="ellipse;whiteSpace=wrap;html=1;fillColor=#fff2cc;strokeColor=#d6b656;" parent="1" vertex="1">
          <mxGeometry x="419" y="330" width="101" height="70" as="geometry" />
        </mxCell>
        <mxCell id="FvcmgDNgN76bUKk6OBXz-57" value="Attribute" style="ellipse;whiteSpace=wrap;html=1;fillColor=#fff2cc;strokeColor=#d6b656;" parent="1" vertex="1">
          <mxGeometry x="290" y="430" width="101" height="70" as="geometry" />
        </mxCell>
        <mxCell id="FvcmgDNgN76bUKk6OBXz-63" value="action" style="ellipse;whiteSpace=wrap;html=1;fillColor=#d5e8d4;strokeColor=#82b366;" parent="1" vertex="1">
          <mxGeometry x="660" y="365" width="101" height="70" as="geometry" />
        </mxCell>
        <mxCell id="FvcmgDNgN76bUKk6OBXz-64" value="session" style="text;html=1;strokeColor=none;fillColor=none;align=center;verticalAlign=middle;whiteSpace=wrap;rounded=0;" parent="1" vertex="1">
          <mxGeometry x="450" y="450" width="90" height="30" as="geometry" />
        </mxCell>
        <mxCell id="FvcmgDNgN76bUKk6OBXz-66" value="policy" style="text;html=1;strokeColor=none;fillColor=none;align=center;verticalAlign=middle;whiteSpace=wrap;rounded=0;" parent="1" vertex="1">
          <mxGeometry x="600" y="490" width="60" height="30" as="geometry" />
        </mxCell>
      </root>
    </mxGraphModel>
  </diagram>
</mxfile>
